<svg width="60" height="60" viewBox="0 0 60 60" fill="none" xmlns="http://www.w3.org/2000/svg">
<circle cx="30" cy="30" r="30" fill="black"/>
<path d="M42.18 22.0649L37.935 17.8199C37.0919 16.9758 35.9481 16.501 34.755 16.4999H25.245C24.052 16.501 22.9081 16.9758 22.065 17.8199L17.82 22.0649C16.9759 22.908 16.5011 24.0519 16.5 25.2449V38.9999C16.5 40.1934 16.9742 41.338 17.8181 42.1819C18.662 43.0258 19.8066 43.4999 21 43.4999H39C40.1935 43.4999 41.3381 43.0258 42.182 42.1819C43.0259 41.338 43.5 40.1934 43.5 38.9999V25.2449C43.499 24.0519 43.0242 22.908 42.18 22.0649ZM24.18 19.9349C24.4675 19.6608 24.8479 19.5055 25.245 19.4999H34.755C35.1522 19.5055 35.5326 19.6608 35.82 19.9349L38.385 22.4999H21.615L24.18 19.9349ZM39 40.4999H21C20.6022 40.4999 20.2207 40.3419 19.9394 40.0606C19.6581 39.7793 19.5 39.3978 19.5 38.9999V25.4999H40.5V38.9999C40.5 39.3978 40.342 39.7793 40.0607 40.0606C39.7794 40.3419 39.3979 40.4999 39 40.4999Z" fill="white"/>
<path d="M34.5002 28.4999C34.1023 28.4999 33.7208 28.658 33.4395 28.9393C33.1582 29.2206 33.0002 29.6021 33.0002 29.9999C33.0002 30.7956 32.6841 31.5586 32.1215 32.1213C31.5589 32.6839 30.7958 32.9999 30.0002 32.9999C29.2045 32.9999 28.4414 32.6839 27.8788 32.1213C27.3162 31.5586 27.0002 30.7956 27.0002 29.9999C27.0002 29.6021 26.8421 29.2206 26.5608 28.9393C26.2795 28.658 25.898 28.4999 25.5002 28.4999C25.1023 28.4999 24.7208 28.658 24.4395 28.9393C24.1582 29.2206 24.0002 29.6021 24.0002 29.9999C24.0002 31.5912 24.6323 33.1174 25.7575 34.2426C26.8827 35.3678 28.4089 35.9999 30.0002 35.9999C31.5915 35.9999 33.1176 35.3678 34.2428 34.2426C35.368 33.1174 36.0002 31.5912 36.0002 29.9999C36.0002 29.6021 35.8421 29.2206 35.5608 28.9393C35.2795 28.658 34.898 28.4999 34.5002 28.4999Z" fill="white"/>
</svg>
