<svg width="16" height="16" viewBox="0 0 16 16" fill="none" xmlns="http://www.w3.org/2000/svg">
<path d="M14.5743 0.252017L8.00042 6.82589L1.42655 0.252017C1.25236 0.0956353 1.05674 0.0174448 0.8397 0.0174448C0.622658 0.0174448 0.431216 0.100088 0.265374 0.265374C0.0995312 0.430659 0.0168879 0.622101 0.0174444 0.8397C0.018001 1.0573 0.0961918 1.25292 0.252017 1.42655L6.82589 8.00042L0.252017 14.5743C0.0260706 14.8002 -0.0479461 15.0699 0.0299664 15.3832C0.107879 15.6965 0.299321 15.8921 0.604293 15.97C0.909265 16.0479 1.18307 15.9739 1.42571 15.748L7.99958 9.17411L14.5735 15.748C14.7476 15.9044 14.9433 15.9826 15.1603 15.9826C15.3773 15.9826 15.5688 15.8999 15.7346 15.7346C15.9005 15.5693 15.9831 15.3779 15.9826 15.1603C15.982 14.9427 15.9038 14.7471 15.748 14.5735L9.17411 7.99958L15.748 1.42571C15.9739 1.19977 16.0479 0.930134 15.97 0.616815C15.8921 0.303495 15.6965 0.107879 15.3832 0.0299664C15.0699 -0.0479461 14.8002 0.0260706 14.5743 0.252017Z" fill="#F25F0C"/>
</svg>
