<svg width="35" height="36" viewBox="0 0 35 36" fill="none" xmlns="http://www.w3.org/2000/svg">
<g clip-path="url(#clip0_149_237)">
<path d="M30.625 7.82707V28.2437C30.625 29.8546 29.3192 31.1604 27.7083 31.1604H22.2396C21.8369 31.1604 21.5104 30.8339 21.5104 30.4312V21.6812H24.9229C25.2695 21.6813 25.5682 21.4375 25.6375 21.0979L26.1625 18.4729C26.1842 18.3669 26.1576 18.2567 26.09 18.1722C26.0224 18.0876 25.9207 18.0375 25.8125 18.0354H21.5104V13.2958C21.5104 13.0945 21.6736 12.9312 21.875 12.9312H25.5208C25.9235 12.9312 26.25 12.6048 26.25 12.2021V10.0146C26.25 9.61186 25.9235 9.2854 25.5208 9.2854H21.875C19.4588 9.2854 17.5 11.2442 17.5 13.6604V18.0354H15.7063C15.3035 18.0354 14.9771 18.3619 14.9771 18.7646V20.9521C14.9771 21.3548 15.3035 21.6812 15.7063 21.6812H17.5V30.4312C17.5 30.8339 17.1735 31.1604 16.7708 31.1604H7.29167C5.68084 31.1604 4.375 29.8546 4.375 28.2437V7.82707C4.375 6.21624 5.68084 4.9104 7.29167 4.9104H27.7083C29.3192 4.9104 30.625 6.21624 30.625 7.82707Z" fill="#333333"/>
</g>
<defs>
<clipPath id="clip0_149_237">
<rect width="35" height="35" fill="white" transform="translate(0 0.5354)"/>
</clipPath>
</defs>
</svg>
