<svg width="200" height="200" viewBox="0 0 200 200" fill="none" xmlns="http://www.w3.org/2000/svg">
<path fill-rule="evenodd" clip-rule="evenodd" d="M100 0C44.7727 0 0 44.7727 0 100C0 155.227 44.7727 200 100 200C155.227 200 200 155.227 200 100C200 44.7727 155.227 0 100 0ZM133.7 79.1545C135.356 77.44 136.272 75.1436 136.252 72.76C136.231 70.3764 135.275 68.0963 133.589 66.4107C131.904 64.7252 129.624 63.7691 127.24 63.7484C124.856 63.7277 122.56 64.644 120.845 66.3L100 87.1455L79.1545 66.3C78.3159 65.4317 77.3128 64.7392 76.2037 64.2627C75.0945 63.7863 73.9016 63.5355 72.6946 63.525C71.4875 63.5145 70.2904 63.7445 69.1731 64.2016C68.0559 64.6587 67.0409 65.3338 66.1873 66.1873C65.3338 67.0409 64.6587 68.0559 64.2016 69.1731C63.7445 70.2904 63.5145 71.4875 63.525 72.6946C63.5355 73.9016 63.7863 75.0945 64.2627 76.2037C64.7392 77.3128 65.4317 78.3159 66.3 79.1545L87.1455 100L66.3 120.845C65.4317 121.684 64.7392 122.687 64.2627 123.796C63.7863 124.905 63.5355 126.098 63.525 127.305C63.5145 128.513 63.7445 129.71 64.2016 130.827C64.6587 131.944 65.3338 132.959 66.1873 133.813C67.0409 134.666 68.0559 135.341 69.1731 135.798C70.2904 136.255 71.4875 136.485 72.6946 136.475C73.9016 136.465 75.0945 136.214 76.2037 135.737C77.3128 135.261 78.3159 134.568 79.1545 133.7L100 112.855L120.845 133.7C122.56 135.356 124.856 136.272 127.24 136.252C129.624 136.231 131.904 135.275 133.589 133.589C135.275 131.904 136.231 129.624 136.252 127.24C136.272 124.856 135.356 122.56 133.7 120.845L112.855 100L133.7 79.1545Z" fill="black"/>
</svg>
