<svg width="35" height="36" viewBox="0 0 35 36" fill="none" xmlns="http://www.w3.org/2000/svg">
<g clip-path="url(#clip0_149_233)">
<path d="M23.3333 4.9104H11.6667C7.63959 4.9104 4.375 8.17499 4.375 12.2021V23.8687C4.375 27.8958 7.63959 31.1604 11.6667 31.1604H23.3333C27.3604 31.1604 30.625 27.8958 30.625 23.8687V12.2021C30.625 8.17499 27.3604 4.9104 23.3333 4.9104ZM28.0729 23.8687C28.0649 26.483 25.9476 28.6003 23.3333 28.6083H11.6667C9.05239 28.6003 6.93509 26.483 6.92708 23.8687V12.2021C6.93509 9.58779 9.05239 7.47049 11.6667 7.46248H23.3333C25.9476 7.47049 28.0649 9.58779 28.0729 12.2021V23.8687ZM25.8854 11.1083C25.8854 11.9137 25.2325 12.5667 24.4271 12.5667C23.6217 12.5667 22.9688 11.9137 22.9688 11.1083C22.9688 10.3029 23.6217 9.64998 24.4271 9.64998C25.2325 9.64998 25.8854 10.3029 25.8854 11.1083ZM17.5 11.4729C13.8756 11.4729 10.9375 14.411 10.9375 18.0354C10.9375 21.6598 13.8756 24.5979 17.5 24.5979C21.1244 24.5979 24.0625 21.6598 24.0625 18.0354C24.0664 16.2937 23.3762 14.6223 22.1447 13.3907C20.9131 12.1592 19.2417 11.469 17.5 11.4729ZM17.5 22.0458C15.2851 22.0458 13.4896 20.2503 13.4896 18.0354C13.4896 15.8205 15.2851 14.025 17.5 14.025C19.7149 14.025 21.5104 15.8205 21.5104 18.0354C21.5104 20.2503 19.7149 22.0458 17.5 22.0458Z" fill="#333333"/>
</g>
<defs>
<clipPath id="clip0_149_233">
<rect width="35" height="35" fill="white" transform="translate(0 0.5354)"/>
</clipPath>
</defs>
</svg>
