<svg width="35" height="35" viewBox="0 0 35 35" fill="none" xmlns="http://www.w3.org/2000/svg">
<path d="M29.8521 2.91671H5.1479C4.8702 2.91285 4.59446 2.96374 4.33643 3.06646C4.0784 3.16917 3.84313 3.32172 3.64406 3.51537C3.44499 3.70903 3.28602 3.94 3.17622 4.1951C3.06642 4.4502 3.00795 4.72443 3.00415 5.00212V29.998C3.00795 30.2757 3.06642 30.5499 3.17622 30.805C3.28602 31.0601 3.44499 31.2911 3.64406 31.4847C3.84313 31.6784 4.0784 31.8309 4.33643 31.9336C4.59446 32.0363 4.8702 32.0872 5.1479 32.0834H29.8521C30.1298 32.0872 30.4055 32.0363 30.6635 31.9336C30.9216 31.8309 31.1568 31.6784 31.3559 31.4847C31.555 31.2911 31.7139 31.0601 31.8237 30.805C31.9335 30.5499 31.992 30.2757 31.9958 29.998V5.00212C31.992 4.72443 31.9335 4.4502 31.8237 4.1951C31.7139 3.94 31.555 3.70903 31.3559 3.51537C31.1568 3.32172 30.9216 3.16917 30.6635 3.06646C30.4055 2.96374 30.1298 2.91285 29.8521 2.91671ZM11.7979 27.3292H7.4229V14.2042H11.7979V27.3292ZM9.6104 12.3667C9.00703 12.3667 8.42838 12.127 8.00173 11.7004C7.57509 11.2737 7.3354 10.6951 7.3354 10.0917C7.3354 9.48834 7.57509 8.90969 8.00173 8.48304C8.42838 8.0564 9.00703 7.81671 9.6104 7.81671C9.93079 7.78037 10.2552 7.81212 10.5625 7.90987C10.8698 8.00762 11.1529 8.16917 11.3934 8.38394C11.6339 8.59872 11.8264 8.86186 11.9581 9.15616C12.0899 9.45046 12.158 9.76926 12.158 10.0917C12.158 10.4142 12.0899 10.733 11.9581 11.0273C11.8264 11.3216 11.6339 11.5847 11.3934 11.7995C11.1529 12.0142 10.8698 12.1758 10.5625 12.2735C10.2552 12.3713 9.93079 12.403 9.6104 12.3667ZM27.5771 27.3292H23.2021V20.2855C23.2021 18.5209 22.575 17.3688 20.9854 17.3688C20.4935 17.3724 20.0144 17.5267 19.6129 17.8109C19.2113 18.0951 18.9065 18.4956 18.7396 18.9584C18.6254 19.3011 18.576 19.6621 18.5937 20.023V27.3146H14.2187C14.2187 27.3146 14.2187 15.3855 14.2187 14.1896H18.5937V16.0417C18.9912 15.3521 19.5692 14.7839 20.2656 14.3985C20.962 14.013 21.7504 13.8248 22.5458 13.8542C25.4625 13.8542 27.5771 15.7355 27.5771 19.775V27.3292Z" fill="#333333"/>
</svg>
